# xmcd
#
# Track frame offsets:
#	150
#	17468
#	33655
#	49758
#	63945
#	78565
#	94750
#	109640
#	126943
#	142590
#
# Disc length: 2080
#
# Revision: 1
# Processed by: cddbd v1.5.1PL0 Copyright (c) Steve Scherf et al.
# Submitted via: CDex 1.50
# Normalized: r0:TDELIM( - )
#
DISCID=78081e0a
DTITLE=Various Artist - Country
DYEAR=1900
DGENRE=Country
TTITLE0=Joe Diffie - Honky Tonk Attitude
TTITLE1=Patty Loveless - Blame It On Your Heart
TTITLE2=Gibson/Miller Band - High Rollin'
TTITLE3=Collin Raye - Somebody Else's Moon
TTITLE4=Doug Stone - Why Didn't I Think Of That
TTITLE5=Joy Lynn White - True Confessions
TTITLE6=Rick Trevino - Just Enough Rope
TTITLE7=Rodney Crowell - Lovin' All Night
TTITLE8=Ricky Van Shelton - I Am A Simple Man
TTITLE9=Vern Gosdin - Is It Raining At Your House
EXTD=
EXTT0=
EXTT1=
EXTT2=
EXTT3=
EXTT4=
EXTT5=
EXTT6=
EXTT7=
EXTT8=
EXTT9=
PLAYORDER=
